<svg width="59" height="69" viewBox="0 0 59 69" fill="none" xmlns="http://www.w3.org/2000/svg">
<rect x="6.50433" y="67" width="2.995" height="2.13" transform="rotate(-61 6.50433 67)" fill="#03A3F5" fill-opacity="0.9"/>
<rect x="40.5043" y="58" width="2.995" height="2.13" transform="rotate(71 40.5043 58)" fill="#FC9E1C" fill-opacity="0.85"/>
<rect x="56.5043" y="37" width="1.995" height="3.13" transform="rotate(6 56.5043 37)" fill="#9DED1A" fill-opacity="0.6"/>
<circle cx="52.7168" cy="12.2125" r="2.2125" fill="#480CA7" fill-opacity="0.85"/>
<circle cx="25.7168" cy="2.2125" r="2.2125" fill="#9AF5FC" fill-opacity="0.75"/>
<path d="M2.56738 7.82042L4.229 8.11556L4.5778 6.46438L5.15301 8.05095L6.75737 7.52743L5.67097 8.81886L6.92653 9.94652L5.26492 9.65139L4.91612 11.3026L4.34091 9.716L2.73654 10.2395L3.82295 8.94809L2.56738 7.82042Z" fill="#F62584" fill-opacity="0.65"/>
<path d="M5.92912 29.0249L6.29578 30.0715L7.32903 30.4745L6.28235 30.8412L5.87938 31.8744L5.51271 30.8278L4.47946 30.4248L5.52614 30.0581L5.92912 29.0249Z" fill="#F62584" fill-opacity="0.6"/>
<path d="M3.27631 24.7522L3.15441 26.1454L4.44182 26.6919L3.07907 27.0065L2.95718 28.3998L2.23685 27.201L0.874101 27.5156L1.79166 26.46L1.07133 25.2612L2.35874 25.8077L3.27631 24.7522Z" fill="#9DED1A" fill-opacity="0.9"/>
</svg>
